<svg role="img" viewBox="0 0 20 20" fill="none" xmlns="http://www.w3.org/2000/svg">
<title>blog</title>
<g clip-path="url(#clip0_7_2)">
<path d="M0 2.5C0 3.16304 0.263392 3.79893 0.732233 4.26777C1.20107 4.73661 1.83696 5 2.5 5C3.16304 5 3.79893 4.73661 4.26777 4.26777C4.73661 3.79893 5 3.16304 5 2.5C5 1.83696 4.73661 1.20107 4.26777 0.732233C3.79893 0.263392 3.16304 0 2.5 0C1.83696 0 1.20107 0.263392 0.732233 0.732233C0.263392 1.20107 0 1.83696 0 2.5ZM7.5 17.5C7.5 18.163 7.76339 18.7989 8.23223 19.2678C8.70107 19.7366 9.33696 20 10 20C10.663 20 11.2989 19.7366 11.7678 19.2678C12.2366 18.7989 12.5 18.163 12.5 17.5C12.5 16.837 12.2366 16.2011 11.7678 15.7322C11.2989 15.2634 10.663 15 10 15C9.33696 15 8.70107 15.2634 8.23223 15.7322C7.76339 16.2011 7.5 16.837 7.5 17.5ZM7.5 10C7.5 10.663 7.76339 11.2989 8.23223 11.7678C8.70107 12.2366 9.33696 12.5 10 12.5C10.663 12.5 11.2989 12.2366 11.7678 11.7678C12.2366 11.2989 12.5 10.663 12.5 10C12.5 9.33696 12.2366 8.70107 11.7678 8.23223C11.2989 7.76339 10.663 7.5 10 7.5C9.33696 7.5 8.70107 7.76339 8.23223 8.23223C7.76339 8.70107 7.5 9.33696 7.5 10ZM7.5 2.5C7.5 3.16304 7.76339 3.79893 8.23223 4.26777C8.70107 4.73661 9.33696 5 10 5C10.663 5 11.2989 4.73661 11.7678 4.26777C12.2366 3.79893 12.5 3.16304 12.5 2.5C12.5 1.83696 12.2366 1.20107 11.7678 0.732233C11.2989 0.263392 10.663 0 10 0C9.33696 0 8.70107 0.263392 8.23223 0.732233C7.76339 1.20107 7.5 1.83696 7.5 2.5ZM15 2.5C15 3.16304 15.2634 3.79893 15.7322 4.26777C16.2011 4.73661 16.837 5 17.5 5C18.163 5 18.7989 4.73661 19.2678 4.26777C19.7366 3.79893 20 3.16304 20 2.5C20 1.83696 19.7366 1.20107 19.2678 0.732233C18.7989 0.263392 18.163 0 17.5 0C16.837 0 16.2011 0.263392 15.7322 0.732233C15.2634 1.20107 15 1.83696 15 2.5Z" fill="currentColor"/>
</g>
<defs>
<clipPath id="clip0_7_2">
<rect width="20" height="20" fill="white"/>
</clipPath>
</defs>
</svg>
